<mxfile host="app.diagrams.net" modified="2022-08-20T08:37:17.546Z" agent="5.0 (Windows NT 10.0; Win64; x64) AppleWebKit/537.36 (KHTML, like Gecko) Chrome/104.0.0.0 Safari/537.36" etag="ZVGcG5OsQ3OYHA0ayQnj" version="14.6.11" type="github">
  <diagram id="6xUS7RlC67W6AHrxofva" name="Page-1">
    <mxGraphModel dx="1609" dy="428" grid="1" gridSize="10" guides="1" tooltips="1" connect="1" arrows="1" fold="1" page="1" pageScale="1" pageWidth="827" pageHeight="1169" math="0" shadow="0">
      <root>
        <mxCell id="0" />
        <mxCell id="1" parent="0" />
        <mxCell id="8pV4yy2SzoYcOcrSkzgi-1" value="1. Define functions and activities&lt;br&gt;" style="text;html=1;align=center;verticalAlign=middle;resizable=0;points=[];autosize=1;strokeColor=none;" vertex="1" parent="1">
          <mxGeometry x="35" y="90" width="190" height="20" as="geometry" />
        </mxCell>
        <mxCell id="8pV4yy2SzoYcOcrSkzgi-2" value="Actor" style="shape=umlActor;verticalLabelPosition=bottom;verticalAlign=top;html=1;outlineConnect=0;" vertex="1" parent="1">
          <mxGeometry x="50" y="280" width="30" height="60" as="geometry" />
        </mxCell>
        <mxCell id="8pV4yy2SzoYcOcrSkzgi-6" value="Text" style="text;html=1;align=center;verticalAlign=middle;resizable=0;points=[];autosize=1;strokeColor=none;" vertex="1" parent="1">
          <mxGeometry x="110" y="280" width="40" height="20" as="geometry" />
        </mxCell>
        <mxCell id="8pV4yy2SzoYcOcrSkzgi-7" value="Watch Videos" style="rounded=1;whiteSpace=wrap;html=1;" vertex="1" parent="1">
          <mxGeometry x="225" y="450" width="120" height="60" as="geometry" />
        </mxCell>
        <mxCell id="8pV4yy2SzoYcOcrSkzgi-8" value="Browse Videos" style="rounded=1;whiteSpace=wrap;html=1;" vertex="1" parent="1">
          <mxGeometry x="225" y="290" width="120" height="60" as="geometry" />
        </mxCell>
        <mxCell id="8pV4yy2SzoYcOcrSkzgi-9" value="Search Videos" style="rounded=1;whiteSpace=wrap;html=1;" vertex="1" parent="1">
          <mxGeometry x="225" y="370" width="120" height="60" as="geometry" />
        </mxCell>
        <mxCell id="8pV4yy2SzoYcOcrSkzgi-10" value="Focusing on the MVP for video watching functions&lt;br&gt;Not the membership/registration function&lt;br&gt;" style="text;html=1;align=center;verticalAlign=middle;resizable=0;points=[];autosize=1;strokeColor=none;" vertex="1" parent="1">
          <mxGeometry x="-50" y="125" width="280" height="30" as="geometry" />
        </mxCell>
        <mxCell id="8pV4yy2SzoYcOcrSkzgi-11" value="Videos" style="rounded=1;whiteSpace=wrap;html=1;" vertex="1" parent="1">
          <mxGeometry x="480" y="330" width="120" height="60" as="geometry" />
        </mxCell>
        <mxCell id="8pV4yy2SzoYcOcrSkzgi-12" value="2. Naive. SQL approach for small amount of users" style="text;html=1;align=center;verticalAlign=middle;resizable=0;points=[];autosize=1;strokeColor=none;" vertex="1" parent="1">
          <mxGeometry x="-50" y="585" width="280" height="20" as="geometry" />
        </mxCell>
        <mxCell id="8pV4yy2SzoYcOcrSkzgi-19" style="edgeStyle=orthogonalEdgeStyle;rounded=0;orthogonalLoop=1;jettySize=auto;html=1;" edge="1" parent="1" source="8pV4yy2SzoYcOcrSkzgi-13">
          <mxGeometry relative="1" as="geometry">
            <mxPoint x="160" y="680" as="targetPoint" />
          </mxGeometry>
        </mxCell>
        <mxCell id="8pV4yy2SzoYcOcrSkzgi-13" value="Actor" style="shape=umlActor;verticalLabelPosition=bottom;verticalAlign=top;html=1;outlineConnect=0;" vertex="1" parent="1">
          <mxGeometry x="20" y="650" width="30" height="60" as="geometry" />
        </mxCell>
        <mxCell id="8pV4yy2SzoYcOcrSkzgi-15" value="Watch Videos" style="rounded=1;whiteSpace=wrap;html=1;" vertex="1" parent="1">
          <mxGeometry x="195" y="820" width="120" height="60" as="geometry" />
        </mxCell>
        <mxCell id="8pV4yy2SzoYcOcrSkzgi-16" value="Browse Videos&lt;br&gt;GET&lt;br&gt;" style="rounded=1;whiteSpace=wrap;html=1;" vertex="1" parent="1">
          <mxGeometry x="195" y="660" width="120" height="60" as="geometry" />
        </mxCell>
        <mxCell id="8pV4yy2SzoYcOcrSkzgi-17" value="Search Videos&lt;br&gt;GET&amp;nbsp;&lt;br&gt;search db for videos with titles or actors = query params" style="rounded=1;whiteSpace=wrap;html=1;" vertex="1" parent="1">
          <mxGeometry x="195" y="740" width="120" height="60" as="geometry" />
        </mxCell>
        <mxCell id="8pV4yy2SzoYcOcrSkzgi-18" value="Videos&lt;br&gt;Video(id, title, actors[], content)" style="rounded=1;whiteSpace=wrap;html=1;" vertex="1" parent="1">
          <mxGeometry x="450" y="700" width="120" height="60" as="geometry" />
        </mxCell>
        <mxCell id="8pV4yy2SzoYcOcrSkzgi-20" value="3.&amp;nbsp;" style="text;html=1;align=center;verticalAlign=middle;resizable=0;points=[];autosize=1;strokeColor=none;" vertex="1" parent="1">
          <mxGeometry x="85" y="910" width="30" height="20" as="geometry" />
        </mxCell>
        <mxCell id="8pV4yy2SzoYcOcrSkzgi-21" style="edgeStyle=orthogonalEdgeStyle;rounded=0;orthogonalLoop=1;jettySize=auto;html=1;" edge="1" parent="1" source="8pV4yy2SzoYcOcrSkzgi-22">
          <mxGeometry relative="1" as="geometry">
            <mxPoint x="170" y="1005" as="targetPoint" />
          </mxGeometry>
        </mxCell>
        <mxCell id="8pV4yy2SzoYcOcrSkzgi-22" value="Actor" style="shape=umlActor;verticalLabelPosition=bottom;verticalAlign=top;html=1;outlineConnect=0;" vertex="1" parent="1">
          <mxGeometry x="-40" y="985" width="30" height="60" as="geometry" />
        </mxCell>
        <mxCell id="8pV4yy2SzoYcOcrSkzgi-23" value="Watch Videos" style="rounded=1;whiteSpace=wrap;html=1;" vertex="1" parent="1">
          <mxGeometry x="205" y="1145" width="120" height="60" as="geometry" />
        </mxCell>
        <mxCell id="8pV4yy2SzoYcOcrSkzgi-24" value="Browse Videos&lt;br&gt;Recommendation system" style="rounded=1;whiteSpace=wrap;html=1;" vertex="1" parent="1">
          <mxGeometry x="205" y="985" width="120" height="60" as="geometry" />
        </mxCell>
        <mxCell id="8pV4yy2SzoYcOcrSkzgi-25" value="Search Videos&lt;br&gt;GET&amp;nbsp;&lt;br&gt;elasticsearch" style="rounded=1;whiteSpace=wrap;html=1;" vertex="1" parent="1">
          <mxGeometry x="205" y="1065" width="120" height="60" as="geometry" />
        </mxCell>
        <mxCell id="8pV4yy2SzoYcOcrSkzgi-26" value="Videos" style="rounded=1;whiteSpace=wrap;html=1;" vertex="1" parent="1">
          <mxGeometry x="460" y="1025" width="120" height="60" as="geometry" />
        </mxCell>
        <mxCell id="8pV4yy2SzoYcOcrSkzgi-29" style="edgeStyle=orthogonalEdgeStyle;rounded=0;orthogonalLoop=1;jettySize=auto;html=1;entryX=0;entryY=0.5;entryDx=0;entryDy=0;" edge="1" parent="1" source="8pV4yy2SzoYcOcrSkzgi-27" target="8pV4yy2SzoYcOcrSkzgi-23">
          <mxGeometry relative="1" as="geometry" />
        </mxCell>
        <mxCell id="8pV4yy2SzoYcOcrSkzgi-27" value="CDN" style="rounded=1;whiteSpace=wrap;html=1;" vertex="1" parent="1">
          <mxGeometry x="20" y="1140" width="120" height="60" as="geometry" />
        </mxCell>
        <mxCell id="8pV4yy2SzoYcOcrSkzgi-30" value="Ref link: https://www.geeksforgeeks.org/system-design-netflix-a-complete-architecture/" style="text;html=1;align=center;verticalAlign=middle;resizable=0;points=[];autosize=1;strokeColor=none;" vertex="1" parent="1">
          <mxGeometry x="-100" y="1290" width="480" height="20" as="geometry" />
        </mxCell>
        <mxCell id="8pV4yy2SzoYcOcrSkzgi-31" value="I&#39;m having ideas in my brain but too lazy to draw it out on draw.io" style="text;html=1;align=center;verticalAlign=middle;resizable=0;points=[];autosize=1;strokeColor=none;" vertex="1" parent="1">
          <mxGeometry x="-110" y="1330" width="360" height="20" as="geometry" />
        </mxCell>
      </root>
    </mxGraphModel>
  </diagram>
</mxfile>
